<svg version="1.1" id="Layer_1" xmlns="http://www.w3.org/2000/svg" xmlns:xlink="http://www.w3.org/1999/xlink" x="0px" y="0px"
	 width="100%" viewBox="0 0 512 512" enable-background="new 0 0 512 512" xml:space="preserve">
<path fill="#000000" opacity="1.000000" stroke="none" 
	d="
M308.000000,513.000000 
	C205.358261,513.000000 103.216515,513.000000 1.037387,513.000000 
	C1.037387,342.399902 1.037387,171.799789 1.037387,1.099841 
	C171.558426,1.099841 342.116913,1.099841 512.837708,1.099841 
	C512.837708,171.666534 512.837708,342.333252 512.837708,513.000000 
	C444.799774,513.000000 376.649872,513.000000 308.000000,513.000000 
M409.331268,294.159790 
	C407.029358,296.653809 404.727417,299.147827 402.759277,301.280212 
	C399.189819,299.603516 396.594818,298.384583 393.326721,296.837341 
	C388.948029,295.028748 382.587311,294.367767 380.703552,291.114532 
	C378.461426,287.242279 380.363434,281.118225 379.915955,276.018433 
	C379.446625,270.670380 376.430908,266.621948 371.775513,263.957733 
	C361.140656,257.871552 350.599548,263.434265 347.020477,277.693665 
	C347.013275,279.026611 346.845917,280.381653 347.025879,281.688812 
	C347.940491,288.332336 347.131805,293.854431 338.185944,294.997253 
	C335.509369,296.127045 332.331909,296.685944 330.259430,298.504242 
	C325.810028,302.407959 323.114319,300.263062 320.217316,296.748474 
	C314.736359,290.099091 308.376373,285.259491 298.304535,287.227905 
	C292.683655,290.274719 287.599976,293.755981 287.023254,301.858521 
	C286.272583,308.508881 289.238983,313.428406 294.075165,317.647156 
	C296.543579,319.800415 299.847717,322.068298 300.543945,324.843781 
	C301.108856,327.095856 298.336578,330.178680 297.071503,332.905640 
	C296.940399,333.188293 296.993774,333.556488 296.302399,334.255188 
	C292.807129,346.809662 292.807098,346.807739 279.956909,347.010529 
	C279.304352,347.020813 278.653076,347.112732 277.226685,347.024353 
	C275.387573,347.595490 273.477966,348.004089 271.721527,348.765869 
	C263.987793,352.119873 260.322845,359.063171 262.082184,367.594452 
	C263.297150,373.486023 270.976471,381.164673 278.305511,380.089600 
	C281.883789,379.564728 285.619781,379.802155 289.249512,380.108246 
	C290.542053,380.217194 292.406311,381.270325 292.857300,382.366516 
	C295.552795,388.917847 297.911713,395.607605 300.555847,402.714142 
	C299.652374,403.755280 298.262939,405.356384 296.263214,407.220337 
	C293.625977,410.531860 290.556122,413.591919 288.451416,417.212952 
	C285.172363,422.854340 287.464172,432.878540 292.093018,436.615204 
	C298.732971,441.975372 309.828064,440.793640 313.918488,436.595245 
	C316.342499,434.107269 318.712067,431.566162 321.727936,428.774567 
	C323.681885,425.870300 325.567627,426.143311 328.592041,427.839233 
	C333.193054,430.419189 338.284241,432.203918 343.305908,433.920929 
	C345.779755,434.766754 347.244965,435.581635 347.058624,438.526276 
	C346.817566,442.335236 346.893799,446.174713 347.023621,449.994568 
	C347.338287,459.252594 354.943939,465.317322 365.702576,464.998322 
	C373.246735,464.774628 379.886810,457.726257 379.974182,449.075226 
	C379.982697,445.590393 380.167267,442.094269 379.944763,438.624237 
	C379.762054,435.774261 380.985321,434.725464 383.582489,433.923615 
	C387.825806,432.613525 391.897491,430.747375 396.759705,429.002289 
	C398.594666,428.016846 400.429596,427.031433 402.795013,425.761139 
	C406.018555,429.153503 409.309296,432.680267 412.669525,436.139587 
	C419.617279,443.292206 437.771027,441.539795 439.974121,427.103180 
	C442.468964,414.825165 432.228424,409.656677 426.348114,402.778503 
	C428.356384,397.960693 430.199310,393.539551 432.719635,388.732513 
	C433.072174,387.666718 433.731720,386.599030 433.725281,385.535400 
	C433.693481,380.278503 436.743591,379.555176 441.093567,379.933167 
	C444.368713,380.217743 447.697144,379.889038 451.757080,379.974304 
	C456.865387,378.858612 460.889465,376.183441 463.956970,370.933685 
	C466.706146,362.068268 465.112579,355.253998 458.513458,350.126160 
	C453.654877,346.350891 447.754059,346.793762 441.139709,347.021515 
	C436.318787,348.064331 434.026581,345.672668 433.023834,341.244446 
	C432.613220,339.431152 431.765198,337.716888 431.002441,335.214478 
	C430.980804,335.052460 431.002167,334.868103 430.931183,334.731750 
	C429.327698,331.651245 426.105377,328.328766 426.530029,325.565460 
	C427.007050,322.461151 430.775787,319.862701 433.732605,316.776245 
	C443.313965,309.585968 441.103363,295.953857 435.486755,291.137360 
	C428.459167,285.110809 416.881348,284.647369 409.331268,294.159790 
M190.120743,283.022247 
	C177.836090,284.108185 165.481323,284.824890 153.173157,289.984161 
	C146.410995,292.972534 139.648834,295.960938 132.250244,299.236237 
	C128.163910,301.878723 124.077576,304.521210 119.385506,307.165955 
	C119.157265,307.502319 118.929024,307.838684 118.395813,308.138214 
	C118.395813,308.138214 118.239044,308.402374 117.734306,308.835541 
	C112.787323,313.540619 107.840347,318.245667 102.280014,323.216583 
	C97.813904,329.131439 93.347794,335.046295 88.266571,341.286591 
	C84.564201,348.861023 80.861839,356.435486 77.005600,364.773560 
	C76.671921,365.681396 76.230659,366.565155 76.021309,367.500824 
	C74.044746,376.334534 72.107712,385.177094 70.023987,394.942047 
	C70.687408,404.104187 69.980782,413.628387 72.287445,422.356232 
	C77.805977,443.236908 91.563110,456.801483 112.504623,463.098602 
	C122.301186,466.044434 132.152267,464.634308 142.929031,464.973663 
	C154.619659,464.926910 166.310272,464.880127 178.928787,464.973572 
	C190.286194,464.926880 201.643600,464.880188 213.928879,464.973816 
	C223.952713,464.926971 233.976532,464.880157 244.928360,464.973816 
	C256.028595,464.973816 267.128815,464.973816 278.712189,464.973816 
	C275.081146,461.941376 272.097626,459.449707 268.829407,456.333435 
	C266.544159,453.175446 264.085571,450.126892 262.007782,446.837860 
	C256.830261,438.642059 255.595001,429.475159 255.974243,419.180359 
	C256.827545,415.117859 257.680817,411.055328 258.548126,406.926208 
	C241.772736,398.286377 232.515518,384.688324 230.973618,365.096313 
	C230.341095,352.900269 234.696701,342.437012 242.749802,332.740753 
	C247.939850,328.339844 253.129883,323.938904 258.608337,319.293427 
	C255.788086,310.193359 253.637253,303.306244 259.813538,283.166931 
	C236.816788,283.166931 213.909317,283.166931 190.120743,283.022247 
M248.929489,251.974518 
	C259.390411,252.014236 269.910217,252.694962 280.857635,249.013382 
	C291.441437,247.066650 301.182739,243.059998 310.740753,236.772141 
	C318.529999,230.194656 326.319244,223.617157 334.724274,216.738953 
	C335.346649,215.801422 336.011444,214.889023 336.584717,213.922363 
	C341.103943,206.302094 345.605652,198.671463 350.761414,190.692780 
	C355.652039,178.253113 358.616150,165.411545 358.975830,151.098511 
	C358.243713,143.605331 358.325775,135.922180 356.629944,128.653870 
	C351.087250,104.898071 339.091766,84.978523 319.504150,69.999702 
	C300.468231,55.442780 279.220306,47.699253 254.088608,49.017822 
	C241.507538,48.612381 229.561966,51.414867 217.293289,56.228321 
	C216.882141,56.481571 216.490616,56.776100 216.056976,56.981998 
	C206.610123,61.467770 197.465790,66.418190 189.333466,74.157150 
	C183.205688,81.410873 177.077911,88.664589 170.321564,96.254066 
	C169.054169,98.498711 167.462204,100.623215 166.578735,103.009972 
	C163.637634,110.955338 160.950897,118.994873 157.797211,127.732430 
	C155.544006,138.737091 153.522049,149.753098 156.021835,161.858353 
	C156.027664,163.188858 155.816864,164.562408 156.071350,165.843521 
	C161.085464,191.084778 172.126587,212.753754 192.596085,229.214569 
	C208.898361,242.324249 227.362457,249.612152 248.929489,251.974518 
z"/>
<path fill="#2AA3FF" opacity="1.000000" stroke="none" 
	d="
M189.953262,73.889648 
	C197.465790,66.418190 206.610123,61.467770 216.056976,56.981998 
	C216.490616,56.776100 216.882141,56.481571 217.672775,56.546783 
	C218.998886,58.373856 219.702194,60.124485 220.927292,61.356071 
	C263.958740,104.615616 307.039215,147.826370 350.112762,191.044022 
	C345.605652,198.671463 341.103943,206.302094 336.584717,213.922363 
	C336.011444,214.889023 335.346649,215.801422 334.074707,216.812592 
	C331.633392,215.440781 329.691437,214.145691 328.071747,212.527985 
	C283.439636,167.950607 238.837540,123.343178 194.247421,78.723778 
	C192.726517,77.201866 191.380692,75.504974 189.953262,73.889648 
z"/>
<path fill="#2D9AFF" opacity="1.000000" stroke="none" 
	d="
M189.643372,74.023399 
	C191.380692,75.504974 192.726517,77.201866 194.247421,78.723778 
	C238.837540,123.343178 283.439636,167.950607 328.071747,212.527985 
	C329.691437,214.145691 331.633392,215.440781 333.766815,216.962952 
	C326.319244,223.617157 318.529999,230.194656 310.174805,236.683716 
	C307.811035,234.635330 306.083435,232.605225 304.205109,230.725739 
	C261.254852,187.748718 218.279358,144.796951 175.356964,101.792152 
	C173.644928,100.076828 172.408279,97.887039 170.950134,95.918320 
	C177.077911,88.664589 183.205688,81.410873 189.643372,74.023399 
z"/>
<path fill="#26AEFF" opacity="1.000000" stroke="none" 
	d="
M350.437073,190.868408 
	C307.039215,147.826370 263.958740,104.615616 220.927292,61.356071 
	C219.702194,60.124485 218.998886,58.373856 218.027374,56.515831 
	C229.561966,51.414867 241.507538,48.612381 254.626526,49.415001 
	C256.175873,51.107624 257.063995,52.526218 258.216705,53.680561 
	C289.928375,85.437019 321.651978,117.181694 353.450562,148.850983 
	C354.875732,150.270355 357.022827,150.964874 358.833649,151.997025 
	C358.616150,165.411545 355.652039,178.253113 350.437073,190.868408 
z"/>
<path fill="#3190FF" opacity="1.000000" stroke="none" 
	d="
M170.635849,96.086197 
	C172.408279,97.887039 173.644928,100.076828 175.356964,101.792152 
	C218.279358,144.796951 261.254852,187.748718 304.205109,230.725739 
	C306.083435,232.605225 307.811035,234.635330 309.856995,236.823212 
	C301.182739,243.059998 291.441437,247.066650 280.372681,248.723267 
	C278.796814,246.993820 277.857361,245.403259 276.593018,244.137100 
	C238.727646,206.217545 200.837036,168.323105 162.909592,130.465637 
	C161.539749,129.098312 159.756989,128.144714 158.166656,126.998314 
	C160.950897,118.994873 163.637634,110.955338 166.578735,103.009972 
	C167.462204,100.623215 169.054169,98.498711 170.635849,96.086197 
z"/>
<path fill="#494FFF" opacity="1.000000" stroke="none" 
	d="
M88.881691,340.961182 
	C93.347794,335.046295 97.813904,329.131439 102.882408,323.256165 
	C105.450127,324.824432 107.604515,326.163757 109.353119,327.909546 
	C152.960480,371.446381 196.538116,415.013000 240.047821,458.647339 
	C241.735703,460.340027 242.699295,462.754944 244.000366,464.833344 
	C233.976532,464.880157 223.952713,464.926971 213.383392,464.581024 
	C211.825424,462.892426 210.936157,461.473541 209.782623,460.318634 
	C171.116837,421.609894 132.433884,382.918213 93.705376,344.272247 
	C92.347878,342.917633 90.500664,342.053772 88.881691,340.961182 
z"/>
<path fill="#4757FF" opacity="1.000000" stroke="none" 
	d="
M244.464355,464.903564 
	C242.699295,462.754944 241.735703,460.340027 240.047821,458.647339 
	C196.538116,415.013000 152.960480,371.446381 109.353119,327.909546 
	C107.604515,326.163757 105.450127,324.824432 103.189087,323.123230 
	C107.840347,318.245667 112.787323,313.540619 118.286407,308.881714 
	C120.884026,311.110260 122.870964,313.351196 124.983932,315.466187 
	C152.963470,343.472321 180.960693,371.460785 208.953598,399.453552 
	C224.714294,415.214203 240.391190,431.060242 256.295929,446.674164 
	C260.185394,450.492493 264.821350,453.550446 269.114105,456.958008 
	C272.097626,459.449707 275.081146,461.941376 278.712189,464.973816 
	C267.128815,464.973816 256.028595,464.973816 244.464355,464.903564 
z"/>
<path fill="#4C48FF" opacity="1.000000" stroke="none" 
	d="
M88.574135,341.123901 
	C90.500664,342.053772 92.347878,342.917633 93.705376,344.272247 
	C132.433884,382.918213 171.116837,421.609894 209.782623,460.318634 
	C210.936157,461.473541 211.825424,462.892426 212.919449,464.510864 
	C201.643600,464.880188 190.286194,464.926880 178.383301,464.580872 
	C176.824326,462.891296 175.933807,461.471619 174.779358,460.315491 
	C143.730453,429.221588 112.662292,398.146851 81.554535,367.111847 
	C80.303299,365.863586 78.633987,365.034393 77.159470,364.009918 
	C80.861839,356.435486 84.564201,348.861023 88.574135,341.123901 
z"/>
<path fill="#3487FF" opacity="1.000000" stroke="none" 
	d="
M157.981934,127.365372 
	C159.756989,128.144714 161.539749,129.098312 162.909592,130.465637 
	C200.837036,168.323105 238.727646,206.217545 276.593018,244.137100 
	C277.857361,245.403259 278.796814,246.993820 279.963379,248.775574 
	C269.910217,252.694962 259.390411,252.014236 248.378677,251.584320 
	C245.534363,248.612106 243.363617,245.907623 240.928513,243.466904 
	C214.771866,217.249832 188.594910,191.052856 162.336700,164.937668 
	C160.646118,163.256302 158.239975,162.294418 156.166702,160.997833 
	C153.522049,149.753098 155.544006,138.737091 157.981934,127.365372 
z"/>
<path fill="#22B8FF" opacity="1.000000" stroke="none" 
	d="
M358.904724,151.547760 
	C357.022827,150.964874 354.875732,150.270355 353.450562,148.850983 
	C321.651978,117.181694 289.928375,85.437019 258.216705,53.680561 
	C257.063995,52.526218 256.175873,51.107624 255.083801,49.489388 
	C279.220306,47.699253 300.468231,55.442780 319.504150,69.999702 
	C339.091766,84.978523 351.087250,104.898071 356.629944,128.653870 
	C358.325775,135.922180 358.243713,143.605331 358.904724,151.547760 
z"/>
<path fill="#445CFF" opacity="1.000000" stroke="none" 
	d="
M268.971741,456.645721 
	C264.821350,453.550446 260.185394,450.492493 256.295929,446.674164 
	C240.391190,431.060242 224.714294,415.214203 208.953598,399.453552 
	C180.960693,371.460785 152.963470,343.472321 124.983932,315.466187 
	C122.870964,313.351196 120.884026,311.110260 118.538773,308.665131 
	C118.239044,308.402374 118.395813,308.138214 118.780197,307.999969 
	C119.440132,307.629059 119.715698,307.396393 119.991257,307.163696 
	C124.077576,304.521210 128.163910,301.878723 132.860962,299.266174 
	C135.050446,300.766754 136.676056,302.190552 138.201141,303.714905 
	C175.594147,341.090332 212.968277,378.484650 250.388947,415.832367 
	C251.992615,417.432922 254.009079,418.619843 255.833267,419.999451 
	C255.595001,429.475159 256.830261,438.642059 262.007782,446.837860 
	C264.085571,450.126892 266.544159,453.175446 268.971741,456.645721 
z"/>
<path fill="#3D71FF" opacity="1.000000" stroke="none" 
	d="
M379.833344,449.998688 
	C379.886810,457.726257 373.246735,464.774628 365.702576,464.998322 
	C354.943939,465.317322 347.338287,459.252594 347.023621,449.994568 
	C346.893799,446.174713 346.817566,442.335236 347.058624,438.526276 
	C347.244965,435.581635 345.779755,434.766754 343.305908,433.920929 
	C338.284241,432.203918 333.193054,430.419189 328.592041,427.839233 
	C325.567627,426.143311 323.681885,425.870300 321.131561,428.726990 
	C314.358612,422.289154 308.255768,415.824493 301.944305,409.570374 
	C300.656006,408.293793 298.584167,407.807922 296.873535,406.957520 
	C298.262939,405.356384 299.652374,403.755280 300.555847,402.714142 
	C297.911713,395.607605 295.552795,388.917847 292.857300,382.366516 
	C292.406311,381.270325 290.542053,380.217194 289.249512,380.108246 
	C285.619781,379.802155 281.883789,379.564728 278.305511,380.089600 
	C270.976471,381.164673 263.297150,373.486023 262.082184,367.594452 
	C260.322845,359.063171 263.987793,352.119873 271.721527,348.765869 
	C273.477966,348.004089 275.387573,347.595490 277.639099,347.444855 
	C279.233032,349.608856 280.171265,351.594971 281.631989,353.060120 
	C312.741211,384.263763 343.900696,415.417358 375.093872,446.537079 
	C376.462585,447.902557 378.244110,448.854248 379.833344,449.998688 
z"/>
<path fill="#4F40FF" opacity="1.000000" stroke="none" 
	d="
M77.082535,364.391724 
	C78.633987,365.034393 80.303299,365.863586 81.554535,367.111847 
	C112.662292,398.146851 143.730453,429.221588 174.779358,460.315491 
	C175.933807,461.471619 176.824326,462.891296 177.919373,464.510742 
	C166.310272,464.880127 154.619659,464.926910 142.439453,464.554199 
	C141.118988,462.743164 140.530594,461.110199 139.421295,459.995728 
	C118.402489,438.879639 97.355598,417.790985 76.182831,396.829651 
	C74.700096,395.361725 72.191063,394.930450 70.159286,394.017120 
	C72.107712,385.177094 74.044746,376.334534 76.021309,367.500824 
	C76.230659,366.565155 76.671921,365.681396 77.082535,364.391724 
z"/>
<path fill="#4361FF" opacity="1.000000" stroke="none" 
	d="
M255.903748,419.589905 
	C254.009079,418.619843 251.992615,417.432922 250.388947,415.832367 
	C212.968277,378.484650 175.594147,341.090332 138.201141,303.714905 
	C136.676056,302.190552 135.050446,300.766754 133.179169,299.122742 
	C139.648834,295.960938 146.410995,292.972534 153.712830,290.249390 
	C155.429810,292.104126 156.429520,293.870605 157.810959,295.256653 
	C180.314209,317.834808 202.844757,340.385986 225.456268,362.855591 
	C226.881943,364.272369 229.024384,364.967896 230.833389,365.998962 
	C232.515518,384.688324 241.772736,398.286377 258.548126,406.926208 
	C257.680817,411.055328 256.827545,415.117859 255.903748,419.589905 
z"/>
<path fill="#3F6AFF" opacity="1.000000" stroke="none" 
	d="
M230.903503,365.547638 
	C229.024384,364.967896 226.881943,364.272369 225.456268,362.855591 
	C202.844757,340.385986 180.314209,317.834808 157.810959,295.256653 
	C156.429520,293.870605 155.429810,292.104126 154.102554,290.202911 
	C165.481323,284.824890 177.836090,284.108185 190.642303,283.417236 
	C191.708038,284.634766 192.131729,285.577393 192.814163,286.262085 
	C207.362991,300.859619 221.905228,315.464294 236.568695,329.946106 
	C238.018921,331.378357 240.244995,332.025024 242.110962,333.036346 
	C234.696701,342.437012 230.341095,352.900269 230.903503,365.547638 
z"/>
<path fill="#3A78FF" opacity="1.000000" stroke="none" 
	d="
M379.903748,449.536957 
	C378.244110,448.854248 376.462585,447.902557 375.093872,446.537079 
	C343.900696,415.417358 312.741211,384.263763 281.631989,353.060120 
	C280.171265,351.594971 279.233032,349.608856 278.026367,347.515991 
	C278.653076,347.112732 279.304352,347.020813 279.956909,347.010529 
	C292.807098,346.807739 292.807129,346.809662 296.712433,334.408997 
	C304.942383,342.362396 312.733887,350.191010 320.629852,357.912811 
	C321.354797,358.621704 322.747040,358.648315 323.753296,359.390900 
	C323.784821,363.134155 323.528900,366.537567 324.063232,369.812073 
	C326.350311,383.827515 334.198914,393.767944 346.851654,400.039551 
	C355.542755,404.347473 364.612183,404.921143 374.037079,403.222229 
	C375.193298,404.994781 376.135803,406.560394 377.379486,407.831329 
	C382.578644,413.144440 387.959351,418.282898 393.063965,423.683472 
	C394.436249,425.135284 395.069214,427.285950 396.041565,429.115814 
	C391.897491,430.747375 387.825806,432.613525 383.582489,433.923615 
	C380.985321,434.725464 379.762054,435.774261 379.944763,438.624237 
	C380.167267,442.094269 379.982697,445.590393 379.903748,449.536957 
z"/>
<path fill="#2E98FF" opacity="1.000000" stroke="none" 
	d="
M431.116119,335.957611 
	C431.765198,337.716888 432.613220,339.431152 433.023834,341.244446 
	C434.026581,345.672668 436.318787,348.064331 441.595276,347.443237 
	C443.232880,349.608978 444.205688,351.550568 445.633453,353.062592 
	C451.566650,359.345917 457.637024,365.499664 463.657074,371.700989 
	C460.889465,376.183441 456.865387,378.858612 451.297791,379.581177 
	C449.943817,378.010437 449.172119,376.710083 448.136597,375.673126 
	C416.305359,343.798401 384.462708,311.934998 352.548340,280.143646 
	C351.104309,278.705170 348.976166,277.953400 347.166656,276.881775 
	C350.599548,263.434265 361.140656,257.871552 371.775513,263.957733 
	C376.430908,266.621948 379.446625,270.670380 379.915955,276.018433 
	C380.363434,281.118225 378.461426,287.242279 380.703552,291.114532 
	C382.587311,294.367767 388.948029,295.028748 393.688171,297.358276 
	C395.384430,300.104034 396.354004,302.684204 398.115112,304.494263 
	C407.381989,314.018707 416.816101,323.381836 426.282837,332.708923 
	C427.641724,334.047791 429.492798,334.887115 431.116119,335.957611 
z"/>
<path fill="#3092FF" opacity="1.000000" stroke="none" 
	d="
M347.093567,277.287720 
	C348.976166,277.953400 351.104309,278.705170 352.548340,280.143646 
	C384.462708,311.934998 416.305359,343.798401 448.136597,375.673126 
	C449.172119,376.710083 449.943817,378.010437 450.920166,379.510681 
	C447.697144,379.889038 444.368713,380.217743 441.093567,379.933167 
	C436.743591,379.555176 433.693481,380.278503 433.725281,385.535400 
	C433.731720,386.599030 433.072174,387.666718 432.304443,388.583069 
	C423.999329,380.195923 416.138275,371.930115 408.186127,363.752930 
	C407.075928,362.611328 405.517517,361.905640 404.094910,360.592163 
	C403.435272,357.679810 402.975647,355.135101 402.238861,352.673340 
	C396.842896,334.643982 381.751343,324.206543 362.919983,322.510895 
	C356.087433,315.154327 349.260345,308.191437 342.642487,301.035065 
	C341.049805,299.312805 340.150970,296.948914 338.933014,294.880127 
	C347.131805,293.854431 347.940491,288.332336 347.025879,281.688812 
	C346.845917,280.381653 347.013275,279.026611 347.093567,277.287720 
z"/>
<path fill="#3780FF" opacity="1.000000" stroke="none" 
	d="
M156.094269,161.428101 
	C158.239975,162.294418 160.646118,163.256302 162.336700,164.937668 
	C188.594910,191.052856 214.771866,217.249832 240.928513,243.466904 
	C243.363617,245.907623 245.534363,248.612106 247.914978,251.513580 
	C227.362457,249.612152 208.898361,242.324249 192.596085,229.214569 
	C172.126587,212.753754 161.085464,191.084778 156.071350,165.843521 
	C155.816864,164.562408 156.027664,163.188858 156.094269,161.428101 
z"/>
<path fill="#5238FF" opacity="1.000000" stroke="none" 
	d="
M70.091629,394.479584 
	C72.191063,394.930450 74.700096,395.361725 76.182831,396.829651 
	C97.355598,417.790985 118.402489,438.879639 139.421295,459.995728 
	C140.530594,461.110199 141.118988,462.743164 141.975525,464.484070 
	C132.152267,464.634308 122.301186,466.044434 112.504623,463.098602 
	C91.563110,456.801483 77.805977,443.236908 72.287445,422.356232 
	C69.980782,413.628387 70.687408,404.104187 70.091629,394.479584 
z"/>
<path fill="#3B75FF" opacity="1.000000" stroke="none" 
	d="
M242.430389,332.888550 
	C240.244995,332.025024 238.018921,331.378357 236.568695,329.946106 
	C221.905228,315.464294 207.362991,300.859619 192.814163,286.262085 
	C192.131729,285.577393 191.708038,284.634766 191.082840,283.489594 
	C213.909317,283.166931 236.816788,283.166931 259.813538,283.166931 
	C253.637253,303.306244 255.788086,310.193359 258.608337,319.293427 
	C253.129883,323.938904 247.939850,328.339844 242.430389,332.888550 
z"/>
<path fill="#3683FF" opacity="1.000000" stroke="none" 
	d="
M396.400635,429.059052 
	C395.069214,427.285950 394.436249,425.135284 393.063965,423.683472 
	C387.959351,418.282898 382.578644,413.144440 377.379486,407.831329 
	C376.135803,406.560394 375.193298,404.994781 374.222565,402.899292 
	C378.000061,400.578766 382.009338,399.412842 385.249084,397.146729 
	C389.447662,394.210052 393.032959,390.396576 397.175842,387.131348 
	C409.881866,399.603638 422.272705,411.927155 434.735107,424.177856 
	C436.235992,425.653229 438.124420,426.734314 439.833221,427.998138 
	C437.771027,441.539795 419.617279,443.292206 412.669525,436.139587 
	C409.309296,432.680267 406.018555,429.153503 402.795013,425.761139 
	C400.429596,427.031433 398.594666,428.016846 396.400635,429.059052 
z"/>
<path fill="#338BFF" opacity="1.000000" stroke="none" 
	d="
M439.903687,427.550659 
	C438.124420,426.734314 436.235992,425.653229 434.735107,424.177856 
	C422.272705,411.927155 409.881866,399.603638 397.231384,386.767578 
	C401.968933,378.556030 404.318024,370.132507 404.166565,360.998169 
	C405.517517,361.905640 407.075928,362.611328 408.186127,363.752930 
	C416.138275,371.930115 423.999329,380.195923 431.965759,388.776001 
	C430.199310,393.539551 428.356384,397.960693 426.348114,402.778503 
	C432.228424,409.656677 442.468964,414.825165 439.903687,427.550659 
z"/>
<path fill="#338AFF" opacity="1.000000" stroke="none" 
	d="
M338.559479,294.938690 
	C340.150970,296.948914 341.049805,299.312805 342.642487,301.035065 
	C349.260345,308.191437 356.087433,315.154327 362.509155,322.584656 
	C354.267792,324.138794 346.690399,326.214783 339.866791,330.814087 
	C327.608063,318.422607 315.549286,306.305267 303.642120,294.040771 
	C301.746521,292.088318 300.531891,289.474670 299.002441,287.166718 
	C308.376373,285.259491 314.736359,290.099091 320.217316,296.748474 
	C323.114319,300.263062 325.810028,302.407959 330.259430,298.504242 
	C332.331909,296.685944 335.509369,296.127045 338.559479,294.938690 
z"/>
<path fill="#3684FF" opacity="1.000000" stroke="none" 
	d="
M298.653503,287.197327 
	C300.531891,289.474670 301.746521,292.088318 303.642120,294.040771 
	C315.549286,306.305267 327.608063,318.422607 339.710388,331.124512 
	C336.218689,335.485840 332.633301,339.311279 328.970764,342.793396 
	C328.161469,341.367828 327.579559,340.136169 326.674469,339.225861 
	C314.763550,327.245880 302.822968,315.295166 290.833282,303.394104 
	C289.818481,302.386841 288.398712,301.787537 287.167084,300.998718 
	C287.599976,293.755981 292.683655,290.274719 298.653503,287.197327 
z"/>
<path fill="#3780FF" opacity="1.000000" stroke="none" 
	d="
M287.095154,301.428619 
	C288.398712,301.787537 289.818481,302.386841 290.833282,303.394104 
	C302.822968,315.295166 314.763550,327.245880 326.674469,339.225861 
	C327.579559,340.136169 328.161469,341.367828 328.816589,343.115540 
	C327.102814,348.851257 325.466095,353.921509 323.829407,358.991760 
	C322.747040,358.648315 321.354797,358.621704 320.629852,357.912811 
	C312.733887,350.191010 304.942383,342.362396 297.041992,334.223938 
	C296.993774,333.556488 296.940399,333.188293 297.071503,332.905640 
	C298.336578,330.178680 301.108856,327.095856 300.543945,324.843781 
	C299.847717,322.068298 296.543579,319.800415 294.075165,317.647156 
	C289.238983,313.428406 286.272583,308.508881 287.095154,301.428619 
z"/>
<path fill="#3F6AFF" opacity="1.000000" stroke="none" 
	d="
M296.568359,407.088928 
	C298.584167,407.807922 300.656006,408.293793 301.944305,409.570374 
	C308.255768,415.824493 314.358612,422.289154 320.820648,428.864166 
	C318.712067,431.566162 316.342499,434.107269 313.918488,436.595245 
	C309.828064,440.793640 298.732971,441.975372 292.093018,436.615204 
	C287.464172,432.878540 285.172363,422.854340 288.451416,417.212952 
	C290.556122,413.591919 293.625977,410.531860 296.568359,407.088928 
z"/>
<path fill="#2D9AFF" opacity="1.000000" stroke="none" 
	d="
M431.059265,335.586060 
	C429.492798,334.887115 427.641724,334.047791 426.282837,332.708923 
	C416.816101,323.381836 407.381989,314.018707 398.115112,304.494263 
	C396.354004,302.684204 395.384430,300.104034 394.024719,297.522400 
	C396.594818,298.384583 399.189819,299.603516 402.759277,301.280212 
	C404.727417,299.147827 407.029358,296.653809 409.815063,294.318176 
	C417.903381,301.999115 425.507935,309.521637 433.112488,317.044189 
	C430.775787,319.862701 427.007050,322.461151 426.530029,325.565460 
	C426.105377,328.328766 429.327698,331.651245 430.931183,334.731750 
	C431.002167,334.868103 430.980804,335.052460 431.059265,335.586060 
z"/>
<path fill="#2AA3FF" opacity="1.000000" stroke="none" 
	d="
M433.422546,316.910217 
	C425.507935,309.521637 417.903381,301.999115 410.125519,294.184570 
	C416.881348,284.647369 428.459167,285.110809 435.486755,291.137360 
	C441.103363,295.953857 443.313965,309.585968 433.422546,316.910217 
z"/>
<path fill="#2D9AFF" opacity="1.000000" stroke="none" 
	d="
M463.807007,371.317322 
	C457.637024,365.499664 451.566650,359.345917 445.633453,353.062592 
	C444.205688,351.550568 443.232880,349.608978 442.025513,347.515564 
	C447.754059,346.793762 453.654877,346.350891 458.513458,350.126160 
	C465.112579,355.253998 466.706146,362.068268 463.807007,371.317322 
z"/>
<path fill="#4757FF" opacity="1.000000" stroke="none" 
	d="
M119.688385,307.164825 
	C119.715698,307.396393 119.440132,307.629059 118.932678,308.018372 
	C118.929024,307.838684 119.157265,307.502319 119.688385,307.164825 
z"/>
<path fill="#000000" opacity="1.000000" stroke="none" 
	d="
M323.753296,359.390900 
	C325.466095,353.921509 327.102814,348.851257 328.893738,343.458862 
	C332.633301,339.311279 336.218689,335.485840 339.960510,331.349976 
	C346.690399,326.214783 354.267792,324.138794 362.591431,322.907349 
	C381.751343,324.206543 396.842896,334.643982 402.238861,352.673340 
	C402.975647,355.135101 403.435272,357.679810 404.094910,360.592163 
	C404.318024,370.132507 401.968933,378.556030 396.937836,386.596802 
	C393.032959,390.396576 389.447662,394.210052 385.249084,397.146729 
	C382.009338,399.412842 378.000061,400.578766 374.147400,402.556763 
	C364.612183,404.921143 355.542755,404.347473 346.851654,400.039551 
	C334.198914,393.767944 326.350311,383.827515 324.063232,369.812073 
	C323.528900,366.537567 323.784821,363.134155 323.753296,359.390900 
z"/>
</svg>